<svg xmlns="http://www.w3.org/2000/svg" viewBox="0 0 175.67 194.51"><defs><style>.cls-1,.cls-2{fill:none;stroke:#ffcd05;stroke-miterlimit:10;}.cls-1{stroke-width:2px;}.cls-3{font-size:23.22px;fill:#ffcd05;font-family:Billionaire-Medium-Grunge, Billionaire Medium Grunge;}.cls-4{letter-spacing:-0.05em;}.cls-5{letter-spacing:0.03em;}</style></defs><g id="Layer_2" data-name="Layer 2"><g id="Layer_1-2" data-name="Layer 1"><polyline class="cls-1" points="0 193.51 173.94 193.51 63.37 2 10.6 93.4"/><path class="cls-2" d="M82.31,65.59a6.94,6.94,0,0,1-2.76.69q-2.42.34-3.78.69c-2.41.34-4.31.63-5.68.86A25.81,25.81,0,0,0,65.61,69,58.6,58.6,0,0,0,57,73a58.56,58.56,0,0,0-17.9,15.32,61.43,61.43,0,0,0-6.45,10.33,55.93,55.93,0,0,0-4.39,12.13,56.56,56.56,0,0,0-1.55,13.34,1.46,1.46,0,0,0-.17.68,49.32,49.32,0,0,0,1.89,13.43,19.48,19.48,0,0,0,1.63,4.65c.75,1.49,1.52,3,2.33,4.64s1.4,3.24,2.15,4.91A30.83,30.83,0,0,0,37,157a52.77,52.77,0,0,0,5.43,6.62,38.45,38.45,0,0,0,5.93,5.25A5.4,5.4,0,0,1,49.52,170a7.22,7.22,0,0,0,.78.95,3.18,3.18,0,0,0,1.46.6,7,7,0,0,1,2,.77c.92.58,1.92,1.26,3,2.07a21.25,21.25,0,0,0,3,1.89c2,.92,3.73,1.66,5.34,2.24s3.55,1.15,5.85,1.72a23.58,23.58,0,0,0,2.84.6c1.09.17,2.09.35,3,.52a13.52,13.52,0,0,0,2.41.26,1.38,1.38,0,0,0,.52.17,1,1,0,0,0,.68-.17,5.67,5.67,0,0,0,.35-1.38v-2.06c-.12-.69-.2-1.41-.26-2.16s-.09-1.35-.09-1.8V135q0-.85.09-3.36c.06-1.66.11-3.38.17-5.16s.09-3.41.09-4.9a5.16,5.16,0,0,0-.35-2.59,5.4,5.4,0,0,0-1.2-.34H77c-.92.11-1.81.2-2.67.26s-1.52.08-2,.08H65.61c-1,0-2.21.06-3.53.18s-2.55.23-3.7.34a14.06,14.06,0,0,1-2.06.17,3.09,3.09,0,0,1-1-.17"/><line class="cls-2" x1="80.41" y1="118.94" x2="173.94" y2="118.94"/><text class="cls-3" transform="translate(120.68 181.76)">2<tspan class="cls-4" x="7.11" y="0">0</tspan><tspan class="cls-5" x="20.18" y="0">2</tspan><tspan x="27.89" y="0">1</tspan></text></g></g></svg>